<svg width="26" height="26" viewBox="0 0 26 26" fill="none" xmlns="http://www.w3.org/2000/svg">
<g filter="url(#filter0_d_2501_2992)">
<path d="M21.6231 7.8828C21.5212 7.51945 21.3227 7.19049 21.0487 6.93089C20.7669 6.66331 20.4216 6.4719 20.0453 6.37474C18.637 6.00372 12.9948 6.00372 12.9948 6.00372C10.6426 5.97697 8.29096 6.09462 5.9532 6.356C5.57689 6.46034 5.23222 6.65603 4.94984 6.92564C4.67237 7.19248 4.4714 7.52152 4.36641 7.88205C4.11422 9.24002 3.99168 10.6189 4.00046 12C3.99146 13.3799 4.1137 14.7583 4.36641 16.1179C4.46915 16.477 4.66937 16.8045 4.94759 17.0691C5.2258 17.3337 5.57225 17.5248 5.9532 17.626C7.38026 17.9963 12.9948 17.9963 12.9948 17.9963C15.3499 18.0231 17.7045 17.9054 20.0453 17.644C20.4216 17.5468 20.7669 17.3554 21.0487 17.0878C21.3226 16.8283 21.5209 16.4993 21.6223 16.1359C21.8811 14.7785 22.007 13.3991 21.998 12.0172C22.0175 10.6295 21.8918 9.24363 21.6231 7.88205V7.8828ZM11.201 14.5664V9.43434L15.8954 12.0007L11.201 14.5664Z" fill="#595A7E"/>
</g>
<defs>
<filter id="filter0_d_2501_2992" x="-3" y="0" width="32" height="32" filterUnits="userSpaceOnUse" color-interpolation-filters="sRGB">
<feFlood flood-opacity="0" result="BackgroundImageFix"/>
<feColorMatrix in="SourceAlpha" type="matrix" values="0 0 0 0 0 0 0 0 0 0 0 0 0 0 0 0 0 0 127 0" result="hardAlpha"/>
<feOffset dy="4"/>
<feGaussianBlur stdDeviation="2"/>
<feComposite in2="hardAlpha" operator="out"/>
<feColorMatrix type="matrix" values="0 0 0 0 0 0 0 0 0 0 0 0 0 0 0 0 0 0 0.25 0"/>
<feBlend mode="normal" in2="BackgroundImageFix" result="effect1_dropShadow_2501_2992"/>
<feBlend mode="normal" in="SourceGraphic" in2="effect1_dropShadow_2501_2992" result="shape"/>
</filter>
</defs>
</svg>
