<svg width="155" height="64" viewBox="0 0 155 64" fill="none" xmlns="http://www.w3.org/2000/svg">
<path d="M78.3445 0.677514C77.5563 1.08871 77.2185 1.71259 77.2185 2.7902C77.2185 4.20811 78.1052 5.04468 79.6112 5.04468C81.1172 5.04468 82.0039 4.20811 82.0039 2.7902C82.0039 1.28722 81.3002 0.535723 79.7801 0.408111C79.1327 0.351394 78.8652 0.408111 78.3445 0.677514Z" fill="black"/>
<path d="M12.9215 19.0173C8.7971 19.3023 5.73982 20.7082 4.00928 23.1212L3.54781 23.7577L3.43244 22.4277C3.37476 21.6962 3.27381 20.7747 3.21612 20.3853L3.11518 19.6728L1.55769 19.6443L0.000213623 19.6158L0.0723192 19.9293C0.34632 20.9837 0.447268 24.3087 0.447268 32.1365V40.9998H2.01917H3.60549L3.66318 34.3214C3.72086 27.8426 3.72086 27.6241 4.03813 26.7026C4.47076 25.4391 5.06203 24.4987 6.01382 23.5487C6.99446 22.5797 7.97509 22.0097 9.46047 21.5157C10.917 21.0407 12.2149 20.8602 14.2339 20.8602H15.8346L15.95 19.9958C15.9932 19.5208 16.0221 19.1123 15.9788 19.0933C15.8779 19.0268 13.5849 18.9698 12.9215 19.0173Z" fill="black"/>
<path d="M27.1127 13.8497C25.4519 14.0057 23.9319 14.3318 22.4963 14.8423C21.1592 15.3244 19.0761 16.3453 18.5413 16.7706L18.2176 17.04L18.7243 18.0609C19.0058 18.6281 19.2732 19.0818 19.3013 19.0818C19.3435 19.0818 19.991 18.7699 20.751 18.3871C23.6504 16.9266 25.9446 16.3594 29.0128 16.3453C31.2366 16.3311 32.3907 16.5154 33.7701 17.0968C36.8383 18.3871 38.2317 21.0669 38.2317 25.6893V27.3057L36.3739 27.2206C34.1923 27.1214 29.5195 27.3483 27.2535 27.6602C23.1296 28.2415 20.4695 29.3191 18.6539 31.1341C16.8101 32.9774 16.219 34.6505 16.2049 38.0818C16.2049 39.996 16.2471 40.4214 16.5286 41.343C17.6264 44.8736 20.1036 46.8587 24.143 47.4542C25.9446 47.7094 28.9565 47.5535 30.6877 47.0997C33.8404 46.2774 36.6413 44.2923 38.0065 41.8818C38.1614 41.5841 38.3443 41.343 38.3865 41.343C38.4288 41.343 38.5132 42.0945 38.5695 43.002C38.6258 43.9236 38.6962 45.1005 38.7525 45.6251L38.8369 46.5893H40.2866C41.3704 46.5893 41.7504 46.5468 41.7504 46.405C41.7504 46.3199 41.68 45.4975 41.5956 44.6042C41.5111 43.7109 41.3985 38.3796 41.3422 32.7647C41.2437 22.9244 41.2296 22.5132 40.9341 21.4214C40.1177 18.4012 38.4569 16.2602 35.9798 15.0691C33.5308 13.9065 30.6736 13.5094 27.1127 13.8497ZM38.2036 32.7647C38.2458 36.4654 38.1191 37.302 37.1339 39.2587C36.6131 40.308 36.2613 40.79 35.3605 41.6975C33.0382 43.9945 30.6596 44.9303 27.0424 44.9303C23.58 44.9303 21.3844 43.8953 20.1739 41.655C19.4139 40.2512 19.1746 37.8691 19.5687 35.9408C20.5399 31.3326 24.8608 29.5744 34.9946 29.6311L38.1614 29.6453L38.2036 32.7647Z" fill="black"/>
<path d="M104.763 13.8498C102.581 14.0767 100.442 14.8707 98.8373 16.0192C97.6831 16.8558 96.2194 18.4297 95.5579 19.564C95.2623 20.0744 94.9808 20.4998 94.9386 20.4998C94.8963 20.4998 94.8119 19.6207 94.7697 18.5431C94.7134 17.4797 94.6289 16.1752 94.5867 15.6364L94.4882 14.6864H92.9681H91.4481L91.5044 15.0692C91.7718 16.5722 91.8562 21.1237 91.8562 33.0058V46.5894H93.4748H95.0793L95.1215 35.9125L95.1638 25.2498L95.6282 23.9028C96.909 20.1879 99.4284 17.7774 103.074 16.7849C104.537 16.3879 107.535 16.3595 108.887 16.714C112.264 17.6214 114.333 20.0319 115.136 23.9453C115.333 24.867 115.361 26.5401 115.361 35.8132V46.5894H116.979H118.612L118.556 35.1326C118.514 23.9028 118.514 23.6617 118.204 22.5274C117.064 18.1744 114.474 15.2677 110.857 14.2752C108.943 13.7505 106.986 13.6088 104.763 13.8498Z" fill="black"/>
<path d="M136.332 13.9917C132.884 14.417 130.013 15.8491 128.324 18.0043C126.494 20.3155 125.748 23.2364 126.058 26.767C126.353 29.8723 127.367 31.9849 129.436 33.729C130.224 34.3954 131.561 35.1611 132.363 35.4021C132.687 35.5014 132.954 35.6148 132.954 35.6715C132.954 35.7282 132.687 35.8558 132.363 35.9551C131.42 36.2245 130.182 36.9051 129.562 37.4723C128.647 38.2946 128.281 39.0745 128.197 40.2939C128.141 41.2155 128.169 41.4282 128.507 42.1088C128.957 43.0305 129.745 43.7678 130.857 44.2924L131.645 44.6611L130.224 45.3842C126.128 47.4543 124.439 49.6805 124.27 53.282C124.172 55.1111 124.355 56.2028 124.988 57.5782C125.762 59.2655 126.987 60.4849 128.873 61.4633C130.97 62.5551 133.137 63.023 136.783 63.1364C144.186 63.3775 149.773 61.4917 152.518 57.8193C154.587 55.0543 154.897 50.7723 153.222 48.1491C152.265 46.632 150.294 45.2991 147.944 44.5618C145.72 43.8529 141.385 43.3282 137.88 43.3282C134.685 43.3282 132.828 42.8887 131.772 41.9103C131.251 41.414 131.209 41.3148 131.167 40.4782C131.096 39.3864 131.35 38.9043 132.293 38.2379C133.757 37.2312 135.417 36.8342 139.077 36.664C142.286 36.5081 143.89 36.1536 145.903 35.1611C147.029 34.6081 147.437 34.2961 148.436 33.2752C149.337 32.3536 149.759 31.7864 150.153 30.9924C151.04 29.1491 151.181 28.4118 151.181 25.6043C151.181 23.4066 151.139 23.0096 150.857 22.0596C150.252 20.1312 149.168 18.4581 147.831 17.4372L147.001 16.8133H147.648C148.394 16.8133 152.982 17.0685 153.968 17.1536L154.629 17.2245V15.9626V14.6864H149.45C144.439 14.6864 144.228 14.6723 142.736 14.332C140.963 13.9208 138.063 13.7648 136.332 13.9917ZM141.892 16.7282C144.369 17.4088 146.353 18.9969 147.353 21.067C148.296 23.0237 148.535 25.8737 147.93 28.1991C147.17 31.2051 145.101 33.1902 142.004 33.9275C140.456 34.2961 136.543 34.282 135.136 33.9133C131.856 33.0626 129.942 31.1058 129.239 27.9155C128.957 26.6111 128.943 23.9879 129.224 22.7827C129.492 21.6767 130.266 20.1454 131.012 19.2946C132.152 17.9902 134.221 16.8984 136.262 16.5297C137.36 16.3312 140.906 16.4588 141.892 16.7282ZM139.288 45.9514C144.988 46.1924 148.732 47.3126 150.139 49.1984C151.322 50.7581 151.434 53.3528 150.435 55.5223C150.21 56.0185 149.717 56.6708 149.084 57.2946C146.86 59.5208 143.144 60.6267 137.923 60.6267C130.815 60.6267 127.324 58.3014 127.324 53.5655C127.324 51.6088 128.028 49.9782 129.464 48.6596C130.449 47.7237 131.406 47.1424 133.376 46.2775C134.559 45.7529 134.601 45.7387 135.98 45.8096C136.754 45.8521 138.246 45.9088 139.288 45.9514Z" fill="black"/>
<path d="M44.5232 14.9274C44.5795 15.0692 47.3522 22.2297 50.702 30.8506L56.7822 46.5185L58.6823 46.561C60.3853 46.5894 60.5824 46.5752 60.6809 46.3483C60.7372 46.2066 63.3973 39.1312 66.5923 30.6379C69.7872 22.1304 72.4473 15.0692 72.5036 14.9274C72.6021 14.7006 72.4614 14.6864 70.9132 14.6864H69.2242L69.0835 15.0692C68.8724 15.6648 58.9357 43.0872 58.8371 43.3282C58.7808 43.4842 58.7105 43.4558 58.5838 43.1864C58.4853 42.9879 56.0363 36.4939 53.1369 28.7663L47.873 14.6864H46.1559C44.5795 14.6864 44.4388 14.7006 44.5232 14.9274Z" fill="black"/>
<path d="M78.063 30.6379V46.5894H79.6112H81.1594V30.6379V14.6864H79.6112H78.063V30.6379Z" fill="black"/>
</svg>
