<svg width="36" height="36" viewBox="0 0 36 36" fill="none" xmlns="http://www.w3.org/2000/svg">
<path d="M17.9082 5.30642C17.7061 5.3778 13.9224 6.70009 9.49591 8.23651C5.07305 9.77668 1.37019 11.0764 1.26734 11.1215C0.907336 11.2868 0.708968 11.5347 0.749376 11.7601C0.778764 11.9104 0.988152 12.1208 1.2306 12.2447C1.33346 12.2936 2.27387 12.6354 3.32448 12.9998C4.37509 13.3679 5.2457 13.676 5.26407 13.6872C5.28244 13.6985 5.1906 13.8187 5.06203 13.9577C4.2355 14.8405 3.75795 15.9036 3.58162 17.2597C3.54856 17.5001 3.51183 18.0222 3.5008 18.4167L3.47876 19.1304L3.27305 19.2431C2.65591 19.5737 2.27019 20.3663 2.38407 21.0763C2.40978 21.2228 2.47591 21.4482 2.53468 21.5797C2.65223 21.8426 2.9755 22.2108 3.18121 22.3235L3.31346 22.3948L3.28774 22.6014C3.23999 22.9921 3.04529 23.8787 2.89836 24.3783C2.41713 25.9786 1.5208 27.6502 0.334274 29.1641L0.00366211 29.5886L0.157948 29.7163C0.451825 29.9605 1.24897 30.4901 1.58693 30.6629C1.7706 30.7569 2.07183 30.8921 2.24815 30.9635L2.57509 31.0912L2.85795 30.9447C4.24285 30.2272 5.00325 28.9349 5.21631 26.9402C5.3155 26.0124 5.30448 25.0432 5.17223 22.9733L5.12815 22.2746L5.33754 22.0605C5.87754 21.5008 5.99142 20.6856 5.63509 19.9606C5.57999 19.8517 5.4257 19.6526 5.27876 19.5098L5.02162 19.2544L5.04734 18.8337C5.17223 16.7939 5.74529 15.4152 6.87305 14.446L7.04203 14.2995L7.3506 14.4085C7.51958 14.4686 9.89264 15.295 12.6184 16.2454C15.3477 17.1996 17.7686 18.0448 18 18.1274C18.2314 18.2138 18.4812 18.2814 18.551 18.2814C18.6208 18.2814 18.8449 18.2213 19.0469 18.1462C19.249 18.0748 19.9102 17.8382 20.5163 17.6241C21.1224 17.4099 22.0812 17.0718 22.6469 16.8728C27.0992 15.3025 28.7375 14.724 30.1041 14.2432C34.2882 12.7744 35.3094 12.4062 35.5114 12.3086C35.8604 12.132 36.0404 11.8803 35.9853 11.6512C35.9449 11.4934 35.6877 11.2718 35.4012 11.1516C35.2543 11.0915 31.6726 9.818 27.4408 8.32666C23.209 6.83533 19.4657 5.51303 19.1204 5.39282C18.7788 5.26886 18.4482 5.17119 18.3857 5.17119C18.3269 5.17119 18.1102 5.23129 17.9082 5.30642Z" fill="black"/>
<path d="M17.9082 5.30642C17.7061 5.3778 13.9224 6.70009 9.49591 8.23651C5.07305 9.77668 1.37019 11.0764 1.26734 11.1215C0.907336 11.2868 0.708968 11.5347 0.749376 11.7601C0.778764 11.9104 0.988152 12.1208 1.2306 12.2447C1.33346 12.2936 2.27387 12.6354 3.32448 12.9998C4.37509 13.3679 5.2457 13.676 5.26407 13.6872C5.28244 13.6985 5.1906 13.8187 5.06203 13.9577C4.2355 14.8405 3.75795 15.9036 3.58162 17.2597C3.54856 17.5001 3.51183 18.0222 3.5008 18.4167L3.47876 19.1304L3.27305 19.2431C2.65591 19.5737 2.27019 20.3663 2.38407 21.0763C2.40978 21.2228 2.47591 21.4482 2.53468 21.5797C2.65223 21.8426 2.9755 22.2108 3.18121 22.3235L3.31346 22.3948L3.28774 22.6014C3.23999 22.9921 3.04529 23.8787 2.89836 24.3783C2.41713 25.9786 1.5208 27.6502 0.334274 29.1641L0.00366211 29.5886L0.157948 29.7163C0.451825 29.9605 1.24897 30.4901 1.58693 30.6629C1.7706 30.7569 2.07183 30.8921 2.24815 30.9635L2.57509 31.0912L2.85795 30.9447C4.24285 30.2272 5.00325 28.9349 5.21631 26.9402C5.3155 26.0124 5.30448 25.0432 5.17223 22.9733L5.12815 22.2746L5.33754 22.0605C5.87754 21.5008 5.99142 20.6856 5.63509 19.9606C5.57999 19.8517 5.4257 19.6526 5.27876 19.5098L5.02162 19.2544L5.04734 18.8337C5.17223 16.7939 5.74529 15.4152 6.87305 14.446L7.04203 14.2995L7.3506 14.4085C7.51958 14.4686 9.89264 15.295 12.6184 16.2454C15.3477 17.1996 17.7686 18.0448 18 18.1274C18.2314 18.2138 18.4812 18.2814 18.551 18.2814C18.6208 18.2814 18.8449 18.2213 19.0469 18.1462C19.249 18.0748 19.9102 17.8382 20.5163 17.6241C21.1224 17.4099 22.0812 17.0718 22.6469 16.8728C27.0992 15.3025 28.7375 14.724 30.1041 14.2432C34.2882 12.7744 35.3094 12.4062 35.5114 12.3086C35.8604 12.132 36.0404 11.8803 35.9853 11.6512C35.9449 11.4934 35.6877 11.2718 35.4012 11.1516C35.2543 11.0915 31.6726 9.818 27.4408 8.32666C23.209 6.83533 19.4657 5.51303 19.1204 5.39282C18.7788 5.26886 18.4482 5.17119 18.3857 5.17119C18.3269 5.17119 18.1102 5.23129 17.9082 5.30642Z" fill="url(#paint0_linear_2578_2954)"/>
<path d="M26.2282 18.2433C23.8956 19.0697 21.2433 20.0051 20.3323 20.3281C19.3699 20.6662 18.6242 20.9104 18.547 20.9104C18.4735 20.9104 18.1503 20.8165 17.8307 20.7C17.1474 20.4558 7.34661 17.0412 7.32457 17.0412C7.31722 17.0412 7.30987 18.8894 7.30987 21.147C7.30987 25.6511 7.30253 25.4821 7.53028 25.884C8.97395 28.446 16.3246 29.9223 23.0323 29.0019C25.7323 28.6338 27.9805 27.8975 29.3066 26.9471C29.7989 26.5978 30.258 26.0568 30.4307 25.6286C30.5078 25.437 30.5078 25.4069 30.5189 21.0869C30.5225 18.6978 30.5152 16.7406 30.5005 16.7444C30.4821 16.7444 28.5609 17.4206 26.2282 18.2433Z" fill="black"/>
<path d="M26.2282 18.2433C23.8956 19.0697 21.2433 20.0051 20.3323 20.3281C19.3699 20.6662 18.6242 20.9104 18.547 20.9104C18.4735 20.9104 18.1503 20.8165 17.8307 20.7C17.1474 20.4558 7.34661 17.0412 7.32457 17.0412C7.31722 17.0412 7.30987 18.8894 7.30987 21.147C7.30987 25.6511 7.30253 25.4821 7.53028 25.884C8.97395 28.446 16.3246 29.9223 23.0323 29.0019C25.7323 28.6338 27.9805 27.8975 29.3066 26.9471C29.7989 26.5978 30.258 26.0568 30.4307 25.6286C30.5078 25.437 30.5078 25.4069 30.5189 21.0869C30.5225 18.6978 30.5152 16.7406 30.5005 16.7444C30.4821 16.7444 28.5609 17.4206 26.2282 18.2433Z" fill="url(#paint1_linear_2578_2954)"/>
<defs>
<linearGradient id="paint0_linear_2578_2954" x1="25.3613" y1="11.9457" x2="11.6727" y2="30.9531" gradientUnits="userSpaceOnUse">
<stop stop-color="#75D8AB"/>
<stop offset="1" stop-color="#39AA77"/>
</linearGradient>
<linearGradient id="paint1_linear_2578_2954" x1="23.6623" y1="20.02" x2="17.8273" y2="30.8261" gradientUnits="userSpaceOnUse">
<stop stop-color="#75D8AB"/>
<stop offset="1" stop-color="#39AA77"/>
</linearGradient>
</defs>
</svg>
