<svg width="130" height="156" viewBox="0 0 130 156" fill="none" xmlns="http://www.w3.org/2000/svg">
<g filter="url(#filter0_d_686_6104)">
<rect x="20" y="38.2891" width="83" height="83" rx="21" fill="white"/>
<rect x="21" y="39.2891" width="81" height="81" rx="20" stroke="#7FC6A6" stroke-width="2"/>
</g>
<path d="M43.9498 93.3336C43.9851 93.3961 44.039 93.4461 44.104 93.4766C44.169 93.5072 44.2419 93.5167 44.3126 93.5038L48.4459 92.7503C49.7904 94.2169 51.3652 95.4543 53.1082 96.4139L53.3559 100.605C53.3601 100.677 53.3866 100.746 53.4317 100.802C53.4768 100.858 53.5383 100.898 53.6075 100.918L58.4605 102.276C58.5296 102.296 58.6031 102.293 58.6706 102.269C58.7381 102.244 58.7964 102.199 58.8372 102.14L61.2257 98.6868C63.2135 98.7717 65.2018 98.5319 67.1124 97.9768L70.2536 100.767C70.3073 100.815 70.3745 100.845 70.4459 100.852C70.5174 100.86 70.5894 100.845 70.652 100.81L75.0445 98.3393C75.1071 98.304 75.1572 98.25 75.1877 98.185C75.2182 98.1199 75.2277 98.0469 75.2148 97.9762L74.4612 93.8431C75.9277 92.4985 77.1651 90.9237 78.1248 89.1809L82.3164 88.9328C82.3881 88.9286 82.4566 88.9021 82.5126 88.857C82.5685 88.812 82.609 88.7507 82.6285 88.6815L83.9873 83.8282C84.0066 83.7591 84.0039 83.6856 83.9794 83.618C83.955 83.5505 83.9101 83.4922 83.8509 83.4515L80.3977 81.063C80.483 79.0752 80.2436 77.0869 79.6889 75.1762L82.4793 72.0351C82.527 71.9813 82.5567 71.9141 82.5644 71.8427C82.572 71.7713 82.5572 71.6992 82.522 71.6366L80.0511 67.2444C80.0159 67.1817 79.962 67.1316 79.897 67.101C79.832 67.0704 79.759 67.0609 79.6883 67.0738L75.555 67.8277C74.2102 66.3609 72.635 65.1234 70.8916 64.1641L70.6438 59.9725C70.6396 59.9008 70.6131 59.8322 70.5681 59.7763C70.5231 59.7204 70.4617 59.68 70.3925 59.6606L65.5393 58.3019C65.4701 58.2825 65.3966 58.2852 65.3291 58.3096C65.2616 58.3339 65.2033 58.3788 65.1625 58.4379L62.774 61.8897C60.7862 61.8048 58.7979 62.0447 56.8873 62.5999L53.7462 59.8095C53.6925 59.7618 53.6253 59.732 53.5538 59.7243C53.4824 59.7166 53.4104 59.7313 53.3477 59.7665L48.9555 62.2375C48.8929 62.2727 48.8428 62.3266 48.8123 62.3916C48.7817 62.4566 48.7721 62.5295 48.785 62.6002L49.5385 66.7336C48.0719 68.0781 46.8345 69.6529 45.8749 71.3959L41.6834 71.6437C41.6117 71.6479 41.5431 71.6744 41.4872 71.7195C41.4313 71.7646 41.3908 71.826 41.3715 71.8952L40.0128 76.7482C39.9934 76.8174 39.9961 76.8909 40.0205 76.9585C40.0449 77.0261 40.0897 77.0844 40.1488 77.1253L43.6006 79.5135C43.5161 81.5017 43.7564 83.4905 44.312 85.4014L41.5219 88.5426C41.4742 88.5963 41.4444 88.6635 41.4367 88.7349C41.429 88.8063 41.4437 88.8784 41.4789 88.941L43.9498 93.3336Z" fill="url(#paint0_linear_686_6104)"/>
<path d="M61.0907 85.4898C58.5555 85.0491 56.6526 82.7999 56.7205 80.1519C56.7383 79.4587 56.8925 78.7758 57.1743 78.1421C57.4561 77.5085 57.8599 76.9366 58.3627 76.4591C58.8654 75.9816 59.4574 75.6078 60.1046 75.3591C60.7519 75.1104 61.4418 74.9916 62.1349 75.0096C65.0463 75.0844 67.3518 77.5132 67.277 80.4237C67.2592 81.1169 67.105 81.7998 66.8232 82.4334C66.5415 83.067 66.1378 83.6388 65.635 84.1163C65.1323 84.5939 64.5405 84.9677 63.8933 85.2164C63.2461 85.4651 62.5562 85.584 61.8631 85.5661C61.6041 85.5596 61.3459 85.5341 61.0907 85.4898ZM62.6214 76.7461C62.4459 76.7157 62.2685 76.6982 62.0905 76.6936C61.6163 76.6776 61.1435 76.7556 60.6995 76.9232C60.2555 77.0908 59.8491 77.3447 59.5037 77.6702C59.1583 77.9956 58.8807 78.3863 58.687 78.8196C58.4933 79.2529 58.3873 79.7202 58.3751 80.1947C58.3629 80.6691 58.4448 81.1413 58.616 81.584C58.7871 82.0267 59.0443 82.431 59.3725 82.7738C59.7007 83.1166 60.0935 83.391 60.5283 83.5812C60.9631 83.7714 61.4313 83.8737 61.9058 83.882C62.8106 83.9013 63.6895 83.5788 64.367 82.9787C65.0446 82.3786 65.4711 81.5452 65.5614 80.6445C65.6517 79.7439 65.3992 78.8423 64.8543 78.1197C64.3093 77.397 63.512 76.9063 62.6214 76.7456V76.7461Z" fill="white"/>
<circle cx="62" cy="80.2891" r="5" fill="white"/>
<g filter="url(#filter1_d_686_6104)">
<rect x="20" y="34" width="90" height="90" rx="21" fill="#7FC6A6"/>
</g>
<path d="M71.8357 100.904C76.5952 101.09 80.2632 102.059 80.2731 104.586L65.2513 101.033L64.6066 100.881L60.822 101.415L50.5243 102.866C50.5243 102.866 54.452 108.229 57.1365 108.402C59.8211 108.574 66.6927 106.741 66.6927 106.741L71.0071 107.198C71.0071 107.198 80.1794 108.89 80.187 113.362C80.1859 113.574 80.1905 113.771 80.1978 113.957C80.1086 119.214 79.9861 123.872 79.9861 123.872L80.9374 123.875C80.9374 123.875 82.0848 112.247 81.2355 104.592C80.9313 101.966 76.8683 101.033 71.8357 100.904Z" fill="#F48E5B"/>
<path d="M51.5645 123.828L68.7967 123.857L51.5645 123.828Z" fill="#D68265"/>
<path d="M50.5273 102.879L60.825 101.428C55.1856 102.01 50.5273 102.879 50.5273 102.879Z" fill="#F5BC8F"/>
<path d="M80.2698 104.592C80.2656 102.07 76.5947 101.093 71.8325 100.91C69.6365 100.841 67.4389 100.884 65.248 101.039L80.2698 104.592Z" fill="#F5BC8F"/>
<path d="M80.1703 113.371C80.1628 108.888 70.9905 107.206 70.9905 107.206L66.676 106.749C66.676 106.749 59.8031 108.584 57.1199 108.41C54.4367 108.236 50.5077 102.875 50.5077 102.875C50.5077 102.875 52.5939 110.416 52.0983 113.937C51.6026 117.458 50.6033 123.83 50.6033 123.83L51.5545 123.833L68.7854 123.86L79.9541 123.879C79.9541 123.879 80.0765 119.221 80.1657 113.965C80.1696 113.776 80.1637 113.58 80.1703 113.371Z" fill="#FCC99F"/>
<path d="M75.8837 105.773L53.0399 102.834C51.7496 102.668 50.5391 102.113 49.5694 101.243C48.5997 100.374 47.9167 99.2303 47.6112 97.9653L43.5975 81.4114C43.2622 80.0306 43.3947 78.579 43.9744 77.2847C43.9744 77.2847 46.6795 74.6751 50.1858 66.1279C52.8326 59.678 55.7048 58.0829 60.7327 57.9331L84.8837 64.2012C88.0684 65.19 89.6458 70.9466 88.9284 74.19L82.9377 100.796C81.9117 103.837 78.6104 105.949 75.8837 105.773Z" fill="#FCC99F"/>
<path d="M64.8437 104.26C64.8437 104.26 70.3897 88.9689 78.765 82.4431C87.1403 75.9174 88.3144 76.7558 88.3144 76.7558C88.3144 76.7558 85.4869 101.574 80.2218 104.748C74.9566 107.922 64.8437 104.26 64.8437 104.26Z" fill="#FFD3AB"/>
<path d="M49.8589 75.6376C49.8589 75.6376 60.0692 83.0506 63.0714 87.0961C66.0735 91.1416 67.0134 100.205 67.0134 100.205C67.0134 100.205 74.8512 83.947 82.5968 84.4896L84.1698 78.51L75.7122 71.1069C75.7122 71.1069 68.7271 67.9289 62.0447 68.9726C55.3036 70.033 49.8589 75.6376 49.8589 75.6376Z" fill="#FCC99F"/>
<path d="M46.0607 74.0643C46.0607 74.0643 57.4126 76.3754 62.1223 84.4335C66.832 92.4915 67.0131 100.208 67.0131 100.208L46.34 75.1828L46.0607 74.0643Z" fill="#F48E5B"/>
<path d="M46.5484 97.9899C46.5484 97.9899 41.0023 88.2479 38.8091 83.7218C36.4177 78.7681 37.4817 70.0221 45.3518 73.7802C53.2219 77.5383 58.1505 80.7941 63.8114 91.311C68.6853 100.381 66.5171 104.062 63.8354 105.568C60.1781 107.619 51.9301 107.391 46.5484 97.9899Z" fill="#FFD3AB"/>
<path d="M45.3283 73.8361C45.3283 73.8361 45.6362 57.064 36.569 54.5283C27.5017 51.9927 36.077 61.0687 36.0835 64.0878C36.09 67.107 34.4952 75.1124 37.5696 79.6666C40.644 84.2207 45.3283 73.8361 45.3283 73.8361Z" fill="#FFD3AB"/>
<path d="M72.9945 64.486C72.9975 64.5429 73.007 64.5993 73.0228 64.6541C73.0453 64.7214 73.0761 64.7243 73.1125 64.6711C73.0506 64.5533 73.0197 64.4832 73.0197 64.4832L72.9945 64.486Z" fill="#D68265"/>
<path d="M80.3789 68.0664C80.371 68.397 80.4217 68.54 80.5769 68.3568C80.6334 68.2809 80.679 68.1975 80.7124 68.109C80.6241 68.0542 80.5764 68.0205 80.5764 68.0205C80.5764 68.0205 80.5049 68.0442 80.3789 68.0664Z" fill="#D68265"/>
<path d="M80.8377 106.121C86.9876 103.339 88.6951 83.2084 88.6951 83.2084L89.4753 78.9535C89.4753 78.9535 88.3633 76.6974 88.1741 76.6677C87.6391 80.9188 84.8432 102.009 80.1365 104.849L80.8377 106.121Z" fill="#F48E5B"/>
<path d="M89.092 70.9822C89.092 70.9822 88.7928 74.6495 88.4402 76.5935C88.2126 77.8428 89.3877 78.5228 89.3877 78.5228L89.9627 71.3689L89.092 70.9822Z" fill="#D68265"/>
<path d="M88.4857 64.3151C88.4857 64.3151 93.7466 65.2878 91.5364 73.9282C89.3262 82.5686 88.2208 83.3653 88.2208 83.3653L85.378 71.6132L88.4857 64.3151Z" fill="#F48E5B"/>
<path d="M87.7831 64.0997C87.7831 64.0997 92.3859 65.2507 90.3976 73.4109C88.4094 81.5711 87.2505 83.0864 87.2505 83.0864L84.8572 71.2244L87.7831 64.0997Z" fill="#F5BC8F"/>
<g filter="url(#filter2_d_686_6104)">
<path d="M119.511 44.6521C119.332 44.4411 119.113 44.2681 118.866 44.1434C118.62 44.0187 118.35 43.9448 118.074 43.9261C117.761 43.9047 117.42 43.8943 117.032 43.8943C116.561 43.8943 116.085 43.9099 115.623 43.9244C115.176 43.9388 114.755 43.9527 114.35 43.9527H114.303V40.078H117.933C118.221 40.078 118.506 40.0177 118.77 39.9009C119.034 39.7841 119.27 39.6135 119.463 39.4C119.657 39.1864 119.804 38.9347 119.894 38.6611C119.985 38.3874 120.017 38.0978 119.989 37.811C119.792 35.7394 119.382 33.6936 118.767 31.7057C118.686 31.4444 118.554 31.2018 118.379 30.9919C118.203 30.7821 117.988 30.6092 117.745 30.4833C117.502 30.3573 117.237 30.2809 116.964 30.2584C116.692 30.2359 116.417 30.2677 116.157 30.3521C115.092 30.6995 114.126 31.1076 113.192 31.5053L112.636 31.741C112.338 31.0156 112.038 30.2995 111.743 29.5961C111.552 29.1422 111.36 28.6819 111.164 28.2188C112.451 27.7406 113.726 27.1993 114.874 26.4577C115.103 26.31 115.3 26.1184 115.455 25.8941C115.609 25.6698 115.718 25.4172 115.774 25.1507C115.831 24.8843 115.834 24.6093 115.784 24.3416C115.734 24.074 115.631 23.8188 115.482 23.5909C115.08 22.9773 114.666 22.3752 114.266 21.7928C113.634 20.8735 113.037 20.0051 112.481 19.0921C112.209 18.644 111.776 18.3165 111.271 18.1761C110.765 18.0356 110.225 18.0928 109.761 18.336C108.539 18.9729 107.722 19.8812 107.001 20.6807C106.814 20.8879 106.637 21.0859 106.461 21.2677C105.991 20.8382 105.5 20.3796 104.964 19.8441C104.791 19.6705 104.559 19.4626 104.264 19.1998C104.107 19.0597 103.868 18.8461 103.622 18.6209C103.819 18.4385 104.016 18.2614 104.211 18.0877C105.116 17.2772 106.051 16.4418 106.674 15.2186C106.915 14.7439 106.964 14.1943 106.81 13.6844C106.656 13.1746 106.311 12.744 105.847 12.4826C105.26 12.1514 104.696 11.7578 104.1 11.341C103.082 10.6295 102.028 9.89364 100.69 9.33672C100.421 9.2251 100.13 9.17181 99.8389 9.18035C99.5473 9.18889 99.2609 9.25907 98.9984 9.38628C98.7359 9.51348 98.5033 9.69482 98.3159 9.91837C98.1285 10.1419 97.9906 10.4026 97.9112 10.6833C97.605 11.7693 97.198 12.772 96.7458 13.7724C95.559 13.3214 94.3636 12.838 93.2063 12.3083C93.5537 11.4399 93.919 10.5872 94.2744 9.74776L94.5876 9.01022C94.698 8.74906 94.7534 8.46796 94.7504 8.18446C94.7474 7.90096 94.6861 7.62111 94.5702 7.36234C94.4544 7.10357 94.2865 6.87141 94.0771 6.68033C93.8676 6.48924 93.6211 6.34332 93.3528 6.25165C91.4852 5.61484 89.3744 5.3167 87.332 5.02956L87.2741 5.02144C86.9932 4.9819 86.7072 5.00066 86.4338 5.07655C86.1605 5.15244 85.9057 5.28384 85.6854 5.46255C85.4651 5.64125 85.2839 5.86344 85.1533 6.11524C85.0226 6.36705 84.9453 6.64308 84.926 6.9261C84.871 7.72849 84.8976 8.56617 84.926 9.37551C84.9399 9.80854 84.955 10.2665 84.9538 10.6972H81.0849C81.0849 10.3637 81.0849 10.0274 81.0797 9.69219C81.0797 9.5492 81.0924 9.33962 81.108 9.11789C81.1815 8.08973 81.3187 6.17639 79.6219 5.25243C79.1462 4.99302 78.5876 4.93066 78.0664 5.07876C77.5807 5.2177 76.9664 5.30395 76.3134 5.39484C74.9031 5.59168 73.303 5.81457 72.0728 6.74605C71.6875 7.03729 71.4165 7.45429 71.3067 7.9246C71.1969 8.39491 71.2554 8.88881 71.4719 9.32051C72.012 10.3967 72.4451 11.3572 72.8034 12.2782C72.272 12.4959 71.7579 12.7211 71.2507 12.9428C70.5884 13.2323 69.9447 13.5142 69.2917 13.7678C69.1759 13.4986 69.0601 13.2415 68.9443 12.9943C68.5929 12.2255 68.2896 11.5615 68.1234 10.8008C68.0588 10.5053 67.9301 10.2277 67.7464 9.98737C67.5627 9.74709 67.3285 9.55005 67.0603 9.41019C66.7922 9.27033 66.4966 9.19107 66.1944 9.17797C65.8922 9.16488 65.5908 9.21827 65.3116 9.3344C63.9731 9.89191 62.9201 10.6271 61.9017 11.3386C61.3055 11.7555 60.7439 12.1491 60.1545 12.4803C59.6852 12.7448 59.3377 13.1822 59.1863 13.6993C59.0349 14.2164 59.0915 14.7722 59.3441 15.2481C59.923 16.3399 60.5859 17.0005 61.4247 17.837L61.6065 18.0182C61.8215 18.2237 62.0495 18.4151 62.289 18.5914L61.8838 18.9925C61.0733 19.7996 60.2941 20.5788 59.5426 21.2451C59.4207 21.1154 59.2976 20.9831 59.1733 20.848C58.4022 20.0143 57.528 19.0695 56.3053 18.3714C56.0693 18.2367 55.809 18.1498 55.5394 18.1159C55.2698 18.0819 54.9961 18.1015 54.7341 18.1734C54.472 18.2454 54.2267 18.3683 54.0123 18.5352C53.7978 18.7021 53.6184 18.9096 53.4842 19.146C53.1201 19.788 52.6894 20.3999 52.2332 21.0477C51.5964 21.9491 50.9422 22.8817 50.391 23.9967C50.2675 24.2469 50.1959 24.5195 50.1806 24.7981C50.1653 25.0767 50.2066 25.3556 50.302 25.6178C50.3973 25.88 50.5448 26.1202 50.7356 26.3238C50.9263 26.5275 51.1563 26.6904 51.4117 26.8028C52.0896 27.1003 52.782 27.3724 53.4512 27.6358C53.9207 27.8199 54.3775 28 54.8221 28.1847C54.6096 28.6947 54.4093 29.2064 54.2125 29.7113C53.9381 30.4147 53.6712 31.1007 53.3875 31.7375C52.2992 31.2744 51.1182 30.7996 49.8909 30.3683C49.6288 30.2763 49.3508 30.238 49.0736 30.2557C48.7963 30.2735 48.5255 30.3471 48.2774 30.4719C48.0292 30.5967 47.8088 30.7703 47.6292 30.9823C47.4497 31.1943 47.3147 31.4403 47.2325 31.7057C46.6176 33.6937 46.2081 35.7395 46.0104 37.811C45.9835 38.086 46.012 38.3637 46.0944 38.6275C46.1767 38.8914 46.3111 39.136 46.4897 39.347C46.6682 39.5579 46.8873 39.7309 47.1339 39.8557C47.3805 39.9804 47.6497 40.0545 47.9254 40.0734C48.2392 40.0948 48.5796 40.1052 48.9675 40.1052C49.4387 40.1052 49.9158 40.0896 50.3766 40.0745C50.8247 40.0601 51.245 40.0467 51.6502 40.0467H51.6971V43.9209H48.0649C47.7677 43.921 47.474 43.9852 47.2038 44.1092C46.9337 44.2332 46.6935 44.4141 46.4997 44.6394C46.3058 44.8648 46.1629 45.1293 46.0807 45.4149C45.9984 45.7005 45.9788 46.0006 46.0231 46.2945C46.081 46.6714 46.1302 47.0546 46.1835 47.4598C46.4266 49.3182 46.6784 51.2396 47.6446 52.7795C47.7895 53.0101 47.9785 53.2097 48.2007 53.367C48.423 53.5242 48.6742 53.636 48.9398 53.6959C49.2054 53.7558 49.4802 53.7626 49.7484 53.7159C50.0167 53.6692 50.273 53.57 50.5028 53.4239C51.1743 52.9966 52.0537 52.6603 52.9846 52.3042L53.3661 52.1578C53.8345 53.3249 54.3202 54.4642 54.7961 55.5792C54.8088 55.6105 54.8227 55.6417 54.836 55.673C54.7202 55.721 54.6114 55.7697 54.5002 55.8177C53.5375 56.2328 52.6286 56.6247 51.6514 56.9177C51.3809 56.9983 51.1298 57.1335 50.9137 57.3149C50.6975 57.4963 50.5208 57.7201 50.3945 57.9725C50.2682 58.2249 50.195 58.5005 50.1794 58.7822C50.1637 59.064 50.206 59.346 50.3036 59.6108C50.8247 61.0222 51.6126 62.1083 52.309 63.0658C52.7386 63.6569 53.1444 64.215 53.4553 64.8026C53.5858 65.0487 53.7649 65.2659 53.9816 65.441C54.1983 65.6161 54.4482 65.7456 54.7163 65.8216C54.9843 65.8975 55.265 65.9185 55.5414 65.8832C55.8177 65.8478 56.0841 65.7569 56.3244 65.616C57.5691 64.8865 58.4763 63.9093 59.2769 63.0473L59.5374 62.7677C60.011 63.2499 60.4892 63.7159 60.9593 64.1744C61.3859 64.5901 61.8022 64.9959 62.2045 65.4023C62.0135 65.5801 61.8143 65.7717 61.6047 65.9813C61.4658 66.1202 61.3199 66.2574 61.1758 66.394C60.3074 67.2144 59.2289 68.235 59.3279 69.7055C59.3857 70.5235 59.8101 71.2593 60.5308 71.7774C61.5573 72.515 62.6318 73.1668 63.58 73.7457C64.0194 74.0126 64.4345 74.2668 64.801 74.4983C65.0487 74.6566 65.3275 74.7601 65.6185 74.802C65.9095 74.844 66.2061 74.8233 66.4884 74.7414C66.7708 74.6596 67.0324 74.5184 67.2559 74.3273C67.4793 74.1362 67.6594 73.8997 67.7841 73.6334C68.1726 72.8027 68.5159 71.947 68.8482 71.1198C68.9854 70.777 69.1203 70.4407 69.2535 70.1119L69.5643 70.2392C70.6353 70.6751 71.7295 71.1209 72.8011 71.5812C72.6784 71.8706 72.551 72.1636 72.4202 72.4611C72.0502 73.3058 71.6676 74.1788 71.3503 75.1595C71.1831 75.6759 71.2259 76.2374 71.4694 76.7226C71.7129 77.2077 72.1377 77.5775 72.6517 77.7519C74.5199 78.3887 76.6306 78.6868 78.6725 78.974L78.7304 78.9815C79.0113 79.021 79.2973 79.0022 79.5706 78.9263C79.8439 78.8504 80.0986 78.719 80.319 78.5404C80.5393 78.3618 80.7205 78.1397 80.8513 77.888C80.982 77.6363 81.0596 77.3604 81.0791 77.0774C81.137 76.2745 81.1069 75.4374 81.0791 74.628C81.0652 74.1944 81.0501 73.7371 81.0519 73.3063H84.9254V76.9362C84.9256 77.484 85.1433 78.0093 85.5306 78.3966C85.9179 78.7839 86.4432 79.0016 86.991 79.0018C87.0879 79.002 87.1846 78.9952 87.2805 78.9815L87.3384 78.9734C89.3779 78.6839 91.4875 78.3898 93.3545 77.7519C93.869 77.5759 94.2933 77.2042 94.5355 76.7174C94.7777 76.2305 94.8183 75.6679 94.6484 75.1514C94.3589 74.2668 94.0116 73.4789 93.6758 72.717C93.5079 72.3361 93.3441 71.9644 93.1918 71.5893C93.8923 71.3149 94.5581 71.0225 95.2128 70.7348C95.7217 70.5113 96.2179 70.2931 96.718 70.0899C97.2246 71.4903 97.7914 72.7708 98.5752 73.9223C98.7308 74.1507 98.9306 74.3455 99.1629 74.4953C99.3951 74.6451 99.655 74.7467 99.9273 74.7942C100.199 74.8417 100.478 74.8341 100.748 74.7719C101.017 74.7096 101.271 74.594 101.495 74.4318C102.699 73.5587 104.007 72.7158 105.273 71.9001L105.961 71.4561C106.408 71.167 106.726 70.7167 106.849 70.1991C106.971 69.6815 106.89 69.1364 106.621 68.6773C105.892 67.4326 104.914 66.526 104.052 65.7248L103.773 65.4649C104.255 64.9913 104.721 64.5131 105.18 64.043C105.595 63.6158 106.001 63.2001 106.407 62.7978C106.585 62.9882 106.776 63.188 106.986 63.3975C107.125 63.5359 107.263 63.6812 107.399 63.8254C108.221 64.6937 109.153 65.6779 110.532 65.6779C111.423 65.6779 112.223 65.2483 112.783 64.4697C113.757 63.1139 114.964 61.3476 115.663 59.7069C115.773 59.449 115.83 59.1713 115.829 58.8909C115.828 58.6105 115.77 58.3331 115.659 58.0758C115.547 57.8185 115.385 57.5866 115.18 57.3942C114.976 57.2019 114.735 57.0531 114.472 56.957C114.215 56.8633 113.958 56.7712 113.701 56.6786C112.817 56.3607 111.962 56.0533 111.177 55.7124C111.439 55.1016 111.681 54.485 111.919 53.8789C112.151 53.2878 112.378 52.7118 112.614 52.1636C112.978 52.3129 113.344 52.453 113.704 52.5914C114.476 52.8878 115.205 53.1703 115.817 53.4986C116.085 53.6441 116.383 53.7282 116.687 53.7449C116.992 53.7617 117.297 53.7106 117.58 53.5954C117.863 53.4802 118.117 53.3037 118.323 53.0786C118.529 52.8536 118.683 52.5855 118.774 52.2938C119.389 50.3059 119.798 48.2601 119.996 46.1885C120.022 45.913 119.992 45.635 119.909 45.3711C119.826 45.1072 119.69 44.8627 119.511 44.6521ZM92.4404 20.3854C97.7167 22.7208 101.198 26.9151 103.073 29.7443C101.314 30.5785 99.4807 31.2732 97.697 31.9482C96.1762 32.5271 94.6108 33.1171 93.0737 33.8008C91.4719 31.8973 88.3932 30.0453 85.8048 29.4589C85.5732 28.484 85.5767 27.4164 85.5825 26.2974C85.586 25.6501 85.5894 24.9809 85.546 24.307C85.4852 23.3808 85.3851 22.4452 85.2884 21.5415C85.1836 20.5632 85.0759 19.5593 85.0215 18.5751C87.4379 18.8553 89.9615 19.2884 92.4404 20.3854ZM82.9994 38.4628C83.699 38.4627 84.383 38.6701 84.9647 39.0587C85.5465 39.4473 86 39.9998 86.2678 40.6461C86.5356 41.2925 86.6057 42.0038 86.4692 42.69C86.3327 43.3762 85.9958 44.0065 85.5011 44.5012C85.0064 44.9959 84.3761 45.3328 83.6899 45.4693C83.0037 45.6058 82.2924 45.5357 81.646 45.2679C80.9997 45.0001 80.4472 44.5466 80.0586 43.9648C79.67 43.3831 79.4626 42.6991 79.4627 41.9994C79.4627 41.0615 79.8353 40.1619 80.4986 39.4987C81.1618 38.8354 82.0614 38.4628 82.9994 38.4628ZM62.1304 31.2124C65.7197 24.468 71.1697 20.3681 78.3344 19.0111C78.4843 21.2596 78.6239 23.5307 78.7588 25.7376C78.8421 27.0984 78.9267 28.4591 79.0123 29.8195C76.5537 30.868 74.062 32.2666 72.0745 35.3488C68.9484 34.5904 65.5906 33.7278 61.4264 32.6186C61.6522 32.1369 61.8884 31.6698 62.1304 31.2124ZM67.2249 59.1882C61.4166 53.9299 58.9463 47.3579 59.6908 39.1633C62.1953 39.6786 64.7917 40.3837 67.3141 41.068C68.2647 41.3262 69.2419 41.589 70.2122 41.846C70.2625 42.1749 70.2619 42.5245 70.2608 42.9084C70.2608 43.3547 70.2608 43.8607 70.3459 44.3898C70.721 46.6598 71.8088 48.5829 72.8931 50.2334C72.4971 50.851 72.1002 51.4685 71.7023 52.086C70.2203 54.375 68.7006 56.7371 67.2226 59.1882H67.2249ZM72.8028 63.001C74.1453 60.7565 75.5376 58.6012 76.8906 56.5078C77.3757 55.7552 77.8747 54.9887 78.3668 54.2158C82.6288 55.9422 86.0503 55.013 88.9611 53.7984C89.962 54.9708 90.9387 56.1662 91.8881 57.3299C93.0309 58.728 94.2038 60.1666 95.4357 61.5803C88.2542 66.1908 81.0079 66.6453 72.8005 63.001H72.8028ZM103.53 53.032C102.721 54.5517 101.756 55.9828 100.65 57.3021C99.1518 55.5728 97.7063 53.8054 96.3012 52.0866C95.5394 51.1551 94.7561 50.1975 93.9664 49.2499C95.8549 46.3199 96.5206 42.9437 95.8514 40.0062C97.5934 39.1477 99.4297 38.4593 101.213 37.7907C102.664 37.2465 104.155 36.6873 105.621 36.0302C107.224 41.0263 106.445 47.5588 103.53 53.032Z" fill="url(#paint1_linear_686_6104)"/>
</g>
<path d="M112.026 42.0019C112.026 58.0068 99.0054 71.0279 83.0005 71.0279C66.9957 71.0279 53.9746 58.0068 53.9746 42.0019C53.9746 25.9971 66.9957 12.9766 83.0005 12.9766C99.0054 12.9766 112.026 25.9988 112.026 42.0019ZM55.8133 42.0019C55.8133 56.996 68.0105 69.1921 83.0029 69.1921C97.9952 69.1921 110.193 56.9948 110.193 42.0019C110.193 27.009 97.9958 14.8123 83.0029 14.8123C68.01 14.8123 55.8109 27.0096 55.8109 42.0019H55.8133Z" fill="url(#paint2_linear_686_6104)"/>
<path d="M94.5179 42.0008C94.5179 48.3516 89.3516 53.5179 83.0008 53.5179C76.6501 53.5179 71.4844 48.3516 71.4844 42.0008C71.4844 35.6501 76.6507 30.4844 83.0008 30.4844C89.351 30.4844 94.5179 35.6507 94.5179 42.0008ZM72.2126 42.0008C72.2126 47.9498 77.0524 52.7896 83.0008 52.7896C88.9493 52.7896 93.7896 47.9498 93.7896 42.0008C93.7896 36.0519 88.9498 31.2127 83.0008 31.2127C77.0519 31.2127 72.2126 36.0524 72.2126 42.0008Z" fill="#606684"/>
<path d="M63.2173 68.8565C63.2173 68.8565 59.9597 78.6621 65.8209 80.0057C70.9827 81.1871 72.959 70.9197 73.4259 69.4621C73.9332 67.8686 76.4284 61.2756 76.5837 60.312C76.933 58.085 77.2829 53.7383 73.1689 52.4494C70.72 51.679 67.7806 53.2487 66.489 55.8398C64.1433 60.532 64.3713 64.4943 63.2173 68.8565Z" fill="#F48E5B"/>
<path d="M53.9511 68.2551C53.9511 68.2551 52.4386 76.1107 57.6017 77.1758C62.9497 78.2832 64.7274 68.2341 65.0836 66.7552C65.4398 65.2764 68.2167 57.0629 67.5272 54.4433C66.2328 49.5124 60.9299 47.7564 58.1356 51.4854C55.1498 55.5012 54.7568 59.2257 53.9511 68.2551Z" fill="#F48E5B"/>
<path d="M55.0314 65.5306C55.0314 65.5306 52.8882 74.8562 57.1428 75.6115C61.3975 76.3668 61.679 70.4523 62.0407 68.9679C62.4025 67.4834 65.44 55.964 65.2491 53.264C65.0582 50.5639 59.7155 49.2548 57.8522 52.6141C55.5322 56.8089 55.8883 61.0951 55.0314 65.5306Z" fill="#FFD3AB"/>
<path d="M74.4584 66.2832C74.4584 66.2832 75.6246 58.2995 79.3809 56.8026C82.8979 55.4019 86.0702 58.1966 86.4233 59.8644C86.8964 62.0942 86.4288 63.1483 85.9638 65.7268C85.5252 68.1301 83.3064 68.3506 82.9856 69.2018C81.4932 73.1641 81.2899 74.7567 79.7701 78.2664C79.0779 79.8624 77.7917 83.0937 74.3805 82.3622C71.6854 81.7847 69.9633 79.1479 71.6715 73.5636C72.8502 69.6877 73.3926 68.9853 74.4584 66.2832Z" fill="#F48E5B"/>
<path d="M88.975 64.1492C85.6347 63.0802 83.7281 65.666 82.3913 68.8272C81.0544 71.9883 79.5947 77.8546 79.1644 80.2692C78.7342 82.6838 80.5461 84.6048 82.597 84.4878C84.9126 84.3558 85.9928 82.7227 86.7406 80.8466C87.4604 79.0489 88.2271 76.7386 88.6037 75.7417C89.1407 74.3206 89.7144 73.0901 90.6579 71.0014C91.829 68.4158 92.5999 65.3097 88.975 64.1492Z" fill="#F48E5B"/>
<path d="M88.6344 64.786C85.9721 63.7462 84.1046 66.2284 83.0001 69.2218C81.8955 72.2153 80.5685 77.0395 80.1997 79.3196C79.8309 81.5998 81.6401 82.7741 83.2791 82.6788C85.131 82.5726 85.6367 81.6965 86.2488 79.9224C86.8287 78.2198 87.4723 76.0326 87.7789 75.0916C88.218 73.7488 88.6853 72.5826 89.4526 70.6113C90.4207 68.1668 91.5223 65.9117 88.6344 64.786Z" fill="#FFD3AB"/>
<path d="M74.3799 65.8842C74.3799 65.8842 76.9948 57.0946 80.6741 57.2745C83.6248 57.4112 84.7756 58.5788 85.2531 60.0969C85.9615 62.327 82.6535 67.145 82.1222 68.6026C80.7765 72.3115 81.1862 71.8849 79.8118 75.1707C79.1881 76.6645 77.3158 81.3155 74.7919 80.8979C72.3185 80.4917 70.7247 78.3609 72.264 73.1336C73.3311 69.5096 73.4175 68.4128 74.3799 65.8842Z" fill="#FFD3AB"/>
<path d="M64.0581 67.9609C64.0581 67.9609 61.2799 77.113 65.472 78.161C69.6642 79.209 70.4983 72.9074 70.9624 71.4526C71.4265 69.9977 75.1012 59.135 75.0953 56.4297C75.0893 53.7244 70.5752 51.16 67.7619 55.2727C65.0549 59.226 65.2149 63.5931 64.0581 67.9609Z" fill="#FFD3AB"/>
<defs>
<filter id="filter0_d_686_6104" x="0" y="22.2891" width="123" height="123" filterUnits="userSpaceOnUse" color-interpolation-filters="sRGB">
<feFlood flood-opacity="0" result="BackgroundImageFix"/>
<feColorMatrix in="SourceAlpha" type="matrix" values="0 0 0 0 0 0 0 0 0 0 0 0 0 0 0 0 0 0 127 0" result="hardAlpha"/>
<feOffset dy="4"/>
<feGaussianBlur stdDeviation="10"/>
<feComposite in2="hardAlpha" operator="out"/>
<feColorMatrix type="matrix" values="0 0 0 0 0.0551148 0 0 0 0 0.268283 0 0 0 0 0.595833 0 0 0 0.12 0"/>
<feBlend mode="normal" in2="BackgroundImageFix" result="effect1_dropShadow_686_6104"/>
<feBlend mode="normal" in="SourceGraphic" in2="effect1_dropShadow_686_6104" result="shape"/>
</filter>
<filter id="filter1_d_686_6104" x="0" y="26" width="130" height="130" filterUnits="userSpaceOnUse" color-interpolation-filters="sRGB">
<feFlood flood-opacity="0" result="BackgroundImageFix"/>
<feColorMatrix in="SourceAlpha" type="matrix" values="0 0 0 0 0 0 0 0 0 0 0 0 0 0 0 0 0 0 127 0" result="hardAlpha"/>
<feOffset dy="12"/>
<feGaussianBlur stdDeviation="10"/>
<feComposite in2="hardAlpha" operator="out"/>
<feColorMatrix type="matrix" values="0 0 0 0 0.552361 0 0 0 0 0.653273 0 0 0 0 0.808333 0 0 0 0.15 0"/>
<feBlend mode="normal" in2="BackgroundImageFix" result="effect1_dropShadow_686_6104"/>
<feBlend mode="normal" in="SourceGraphic" in2="effect1_dropShadow_686_6104" result="shape"/>
</filter>
<filter id="filter2_d_686_6104" x="42" y="5" width="82.0051" height="82.0017" filterUnits="userSpaceOnUse" color-interpolation-filters="sRGB">
<feFlood flood-opacity="0" result="BackgroundImageFix"/>
<feColorMatrix in="SourceAlpha" type="matrix" values="0 0 0 0 0 0 0 0 0 0 0 0 0 0 0 0 0 0 127 0" result="hardAlpha"/>
<feOffset dy="4"/>
<feGaussianBlur stdDeviation="2"/>
<feComposite in2="hardAlpha" operator="out"/>
<feColorMatrix type="matrix" values="0 0 0 0 0 0 0 0 0 0 0 0 0 0 0 0 0 0 0.25 0"/>
<feBlend mode="normal" in2="BackgroundImageFix" result="effect1_dropShadow_686_6104"/>
<feBlend mode="normal" in="SourceGraphic" in2="effect1_dropShadow_686_6104" result="shape"/>
</filter>
<linearGradient id="paint0_linear_686_6104" x1="47.4803" y1="63.2596" x2="79.2156" y2="100.48" gradientUnits="userSpaceOnUse">
<stop stop-color="#3B956C"/>
<stop offset="1" stop-color="#63AF8D"/>
</linearGradient>
<linearGradient id="paint1_linear_686_6104" x1="45.9994" y1="41.9995" x2="119.999" y2="41.9995" gradientUnits="userSpaceOnUse">
<stop stop-color="#989FC1"/>
<stop offset="1" stop-color="#A1A6BF"/>
</linearGradient>
<linearGradient id="paint2_linear_686_6104" x1="83.0006" y1="71.0279" x2="83.0006" y2="12.976" gradientUnits="userSpaceOnUse">
<stop stop-color="#5A6082"/>
<stop offset="1" stop-color="#646A86"/>
</linearGradient>
</defs>
</svg>
